<svg xmlns="http://www.w3.org/2000/svg"  viewBox="0 0 40 40" width="16px" height="16px"><path fill="#b0c1d4" d="M20.614,2.5c-4.851,0-9.911,1.881-11.044,7.813c-0.121,0.632,0.062,0.89,0.479,0.982l4.855,0.273 c0.463-0.025,0.832-0.454,0.921-0.91C16.249,8.614,17.979,7.5,19.921,7.5c1.049,0,2.236,0.725,2.856,1.654 c0.717,1.037,0.723,2.447,0.723,3.648v0.682c-2.955,0.329-6.934,0.53-9.698,1.732C10.609,16.582,8.5,19.368,8.5,23.465 c0,5.241,3.22,8.035,7.511,8.035c3.625,0,5.58-1.02,8.378-3.841c0.925,1.326,1.276,1.415,2.97,2.809 c0.381,0.202,0.861,0.165,1.197-0.135c0,0,2.701-1.897,3.74-2.764c0.414-0.338,0.325-0.864,0-1.324 c-0.932-1.274-1.796-2.331-1.796-4.696v-7.84c0-3.33,0.281-6.411-2.199-8.705C26.344,3.147,23.092,2.5,20.614,2.5z M21.994,17.5 c0.46-0.03,1.044,0,1.506,0v1.13c0.001,1.967-0.046,3.585-1.047,5.333c-0.811,1.419-2.113,2.537-3.544,2.537 c-1.956,0-3.409-1.722-3.409-3.906C15.5,18.837,18.778,17.709,21.994,17.5z"/><path fill="#66798f" d="M16.011,32C11.145,32,8,28.649,8,23.464c0-4.069,1.991-7.162,5.605-8.708 c2.365-1.03,5.502-1.337,8.269-1.609c0.386-0.038,0.762-0.075,1.125-0.113v-0.233c0-1.09,0-2.446-0.634-3.364 C21.816,8.615,20.768,8,19.921,8c-1.843,0-3.259,1.083-3.606,2.76c-0.121,0.617-0.636,1.268-1.384,1.308l-4.909-0.273 c-0.497-0.103-1.163-0.429-0.943-1.576C10.077,4.996,14.237,2,20.614,2c1.231,0,5.45,0.19,8.032,2.642 C31.052,6.867,31.024,9.744,31,12.79v8.759c0,2.088,0.69,3.028,1.565,4.219l0.134,0.183c0.528,0.749,0.492,1.534-0.088,2.006 c-1.038,0.867-3.657,2.708-3.768,2.786c-0.235,0.214-0.599,0.352-0.978,0.352c0,0,0,0,0,0c-0.257,0-0.513-0.063-0.74-0.184 l-0.084-0.056c-0.404-0.332-0.73-0.59-1.006-0.808c-0.75-0.591-1.16-0.915-1.707-1.624C21.546,31.12,19.457,32,16.011,32z M19.921,7c1.189,0,2.535,0.771,3.272,1.876C24,10.043,24,11.573,24,12.802v1.129l-0.445,0.05 c-0.502,0.056-1.033,0.108-1.583,0.162c-2.694,0.265-5.747,0.564-7.97,1.532C10.775,17.055,9,19.821,9,23.464 C9,28.112,11.687,31,16.011,31c3.341,0,5.216-0.863,8.023-3.693l0.422-0.426l0.343,0.492c0.66,0.947,0.985,1.203,1.854,1.889 c0.27,0.213,0.588,0.464,0.978,0.784c0.161,0.07,0.362,0.12,0.592-0.085c0.072-0.055,2.742-1.932,3.752-2.775 c0.206-0.168,0.033-0.48-0.088-0.651l-0.127-0.174C30.854,25.128,30,23.965,30,21.549l0.005-8.767 c0.023-2.94,0.043-5.48-2.043-7.41C26.119,3.622,22.958,3,20.614,3c-3.438,0-9.322,0.963-10.553,7.407 c-0.052,0.27-0.016,0.357-0.012,0.364l0,0c0.001,0,0.028,0.019,0.108,0.037l4.774,0.262c0.142-0.011,0.351-0.243,0.403-0.507 C15.783,8.396,17.583,7,19.921,7z M18.909,27C16.717,27,15,25.065,15,22.594c0-2.345,1.208-5.219,6.962-5.593 c0.323-0.021,0.706-0.014,1.069-0.007L24,17v1.63c0.001,2.127-0.077,3.772-1.113,5.582C21.89,25.958,20.403,27,18.909,27z M22.486,17.986c-0.16,0-0.316,0.003-0.459,0.013C18.028,18.259,16,19.805,16,22.594C16,24.536,17.25,26,18.909,26 c1.113,0,2.305-0.875,3.11-2.285c0.915-1.599,0.982-3.051,0.981-5.084v-0.638C22.83,17.99,22.656,17.986,22.486,17.986z"/><g><path fill="#ffeea3" d="M35.955,29.5c-1.311,0.019-2.847,0.958-4.023,1.774c-0.361,0.251-0.308,0.605,0.093,0.558 c1.323-0.157,3.483-0.699,4.35,0.168c0.525,0.666-0.05,2.899-0.543,4.124c-0.15,0.369,0.175,0.512,0.513,0.231 c2.201-1.823,2.589-5.296,1.968-5.917C38.089,30.168,37.268,29.481,35.955,29.5z M1.48,30.857 c-0.274,0.036-0.381,0.393-0.093,0.651C6.279,35.881,12.729,38.5,19.909,38.5c5.122,0,10.487-1.314,14.591-4.313 c0.678-0.498,0.088-1.265-0.606-0.972c-4.6,1.933-9.084,2.284-13.632,2.284c-6.743,0-13.175-1.509-18.453-4.55 C1.693,30.884,1.569,30.846,1.48,30.857z"/><path fill="#ba9b48" d="M19.909,39c-7.023,0-13.72-2.528-18.855-7.119c-0.289-0.258-0.404-0.627-0.301-0.961 c0.093-0.303,0.347-0.516,0.661-0.558c0.313-0.026,0.513,0.08,0.642,0.154C7.149,33.45,13.444,35,20.263,35 c4.204,0,8.742-0.272,13.438-2.245c0.631-0.268,1.357,0.036,1.55,0.624c0.143,0.437-0.031,0.901-0.455,1.211 C30.904,37.434,25.618,39,19.909,39z M2.844,32.082C7.639,35.913,13.638,38,19.909,38c5.498,0,10.575-1.498,14.296-4.216 c0.07-0.052,0.093-0.093,0.095-0.103c-0.006,0-0.1-0.051-0.21-0.004C29.229,35.719,24.572,36,20.263,36 C13.83,36,7.842,34.649,2.844,32.082z M36.004,37.003L36.004,37.003c-0.245,0-0.46-0.111-0.59-0.304 c-0.083-0.123-0.199-0.386-0.046-0.763c0.609-1.512,0.893-3.261,0.614-3.627c-0.182-0.177-0.607-0.289-1.226-0.289 c-0.601,0-1.29,0.105-1.896,0.198c-0.277,0.042-0.539,0.082-0.775,0.11l-0.129,0.008c-0.356,0-0.637-0.189-0.733-0.495 c-0.107-0.34,0.06-0.724,0.424-0.978c1.234-0.857,2.838-1.843,4.302-1.864c0,0,0,0,0.001,0c1.45,0,2.403,0.703,2.748,1.118 c0.265,0.262,0.395,0.827,0.356,1.646c-0.079,1.694-0.788,3.647-2.391,4.976C36.457,36.912,36.229,37.003,36.004,37.003z M34.756,31.021c0.906,0,1.551,0.205,1.972,0.626c0.631,0.797,0.29,2.393-0.104,3.697c1.49-1.827,1.62-4.157,1.326-4.561 C37.753,30.546,37.067,30,36.007,30c-0.976,0.014-2.109,0.597-3.05,1.192C33.535,31.105,34.165,31.021,34.756,31.021z"/></g></svg>