<svg xmlns="http://www.w3.org/2000/svg"  viewBox="0 0 40 40" width="16px" height="16px"><path fill="#8bb7f0" d="M8.5,22.5v8.383L19.988,38.5L31.5,30.909V22.5H8.5z"/><path fill="#4e7ab5" d="M19.987,39.1L8,31.152V22h24v9.178L19.987,39.1z M9,30.615L19.989,37.9L31,30.64V23H9V30.615z"/><g><path fill="#8bb7f0" d="M38.65,9.464L27.643,2.5L20,8.778l11.424,6.65L38.65,9.464z M1.35,21.556l11.328,6.639L20,22.578 L9.15,15.673L1.35,21.556z M12.678,2.5L1.35,9.801l7.8,5.873L20,8.778L12.678,2.5z M20,22.578l7.469,5.618l11.181-6.639 l-7.226-6.129L20,22.578z"/><path fill="#4e7ab5" d="M12.715,28.797L0.45,21.608l7.869-5.935L0.476,9.769L12.72,1.878l7.287,6.247l7.599-6.241 L39.501,9.41l-7.297,6.023l7.305,6.195l-12.072,7.168l-7.434-5.591L12.715,28.797z M20.882,22.616l6.62,4.979l10.291-6.111 l-6.413-5.438L20.882,22.616z M2.25,21.504l10.391,6.09l6.489-4.978l-9.955-6.335L2.25,21.504z M10.082,15.674l9.921,6.313 l10.455-6.543L20.011,9.363L10.082,15.674z M2.223,9.832l6.951,5.233l9.988-6.348l-6.527-5.596L2.223,9.832z M20.873,8.708 l10.501,6.113L37.8,9.518L27.682,3.116L20.873,8.708z"/></g></svg>