<svg xmlns="http://www.w3.org/2000/svg" viewBox="0 0 100 100" enable-background="new 0 0 100 100"><g fill="#000"><path d="m88.6 4l-7.4 82.9-31.2 8.9-31.3-8.9-7.3-82.9h77.2m4.4-4h-86l8 90 35.1 10 34.9-10 8-90z"/><path d="m38 22h4v43c0 0-1 8-8 8s-7 0-7 0v-4h5c0 0 6 0 6-5s0-42 0-42"/><path d="m52.7 71.2c-2.5-1.2-4.4-2.8-5.7-4.7l1.5-4.1c1.3 1.8 3.1 3.3 5.2 4.4 2.2 1.1 4.4 1.7 6.7 1.7 3.2 0 5.7-.8 7.3-2.5 1.6-1.6 2.4-3.8 2.4-6.4 0-2-.4-3.6-1.3-4.8-.9-1.2-2-2.1-3.2-2.8-1.3-.6-3.1-1.3-5.3-2.1-2.7-1-4.9-1.9-6.5-2.8-1.6-.9-3-2.2-4.2-4-1.2-1.8-1.7-4.3-1.7-7.4 0-2.5.5-4.8 1.5-6.9 1-2.1 2.5-3.7 4.5-5 2-1.2 4.5-1.9 7.5-1.9 2.1 0 4.1.4 6.1 1.2 2 .8 3.7 1.9 5.2 3.3l-1.3 4.2c-1.5-1.4-3.1-2.4-4.9-3.1-1.7-.7-3.4-1-5.1-1-3.2 0-5.6.8-7.2 2.5-1.6 1.7-2.4 3.9-2.4 6.6 0 2 .4 3.6 1.3 4.8.9 1.2 2 2.1 3.3 2.8 1.3.6 3.1 1.4 5.4 2.1 2.7.9 4.8 1.8 6.5 2.7 1.6.9 3 2.2 4.2 4 1.1 1.8 1.7 4.2 1.7 7.3 0 2.5-.5 4.8-1.5 6.9-1 2.1-2.5 3.7-4.5 4.9-2 1.2-4.5 1.8-7.5 1.8-2.9.1-5.5-.5-8-1.7"/></g></svg>