<?xml version="1.0" standalone="no"?>
<!DOCTYPE svg PUBLIC "-//W3C//DTD SVG 20010904//EN"
 "http://www.w3.org/TR/2001/REC-SVG-20010904/DTD/svg10.dtd">
<svg version="1.0" xmlns="http://www.w3.org/2000/svg"
 width="1280.000000pt" height="1147.000000pt" viewBox="0 0 1280.000000 1147.000000"
 preserveAspectRatio="xMidYMid meet">
<metadata>
Created by potrace 1.15, written by Peter Selinger 2001-2017
</metadata>
<g transform="translate(0.000000,1147.000000) scale(0.100000,-0.100000)"
fill="#df9077" stroke="none">
<path d="M3924 11413 c-208 -461 -348 -1099 -399 -1823 -15 -211 -19 -696 -6
-855 l7 -90 -82 -160 c-340 -660 -621 -1558 -706 -2253 -7 -64 -16 -101 -23
-98 -369 162 -861 322 -1195 390 -295 59 -413 71 -710 71 -288 0 -380 -7 -380
-31 0 -12 14 -13 83 -7 149 14 561 8 697 -11 397 -53 836 -175 1309 -364 l194
-78 1 -360 1 -360 -360 53 c-785 115 -1050 138 -1423 122 -217 -9 -355 -26
-526 -64 -157 -35 -396 -117 -396 -135 0 -17 20 -21 42 -9 37 20 214 78 319
104 318 81 769 99 1244 50 137 -14 1031 -137 1090 -150 18 -4 23 -19 38 -112
34 -217 101 -433 182 -594 l25 -49 -507 0 c-697 0 -930 -19 -1318 -110 -249
-58 -695 -222 -695 -256 0 -8 2 -14 5 -14 3 0 64 25 135 55 255 107 540 190
802 234 293 49 364 54 993 58 l600 5 34 -59 c127 -217 344 -444 586 -614 194
-136 490 -289 790 -409 262 -105 374 -141 490 -160 354 -56 818 -86 1163 -75
116 4 212 5 212 1 0 -14 -93 -191 -154 -294 -148 -248 -278 -409 -598 -738
-297 -306 -385 -417 -463 -587 -111 -244 -166 -573 -152 -922 l5 -140 -56 110
c-78 150 -104 152 -142 13 -7 -27 -19 -48 -26 -48 -7 0 -26 16 -41 36 -45 60
-62 74 -77 68 -22 -8 -46 -67 -46 -111 0 -37 -6 -43 -111 -136 l-111 -97 -36
29 c-20 16 -50 43 -66 60 -23 24 -32 28 -43 20 -10 -9 0 -24 52 -72 l66 -60
-22 -23 c-25 -27 -31 -25 -119 42 -32 24 -63 44 -69 44 -21 0 -11 -30 17 -48
15 -9 48 -33 74 -51 l47 -34 -22 -27 -22 -28 -28 26 c-16 16 -30 41 -33 64 -4
23 -12 38 -20 38 -33 0 -2 -106 39 -135 18 -12 19 -18 9 -40 -7 -14 -20 -25
-31 -25 -23 0 -44 -31 -35 -53 6 -17 44 -36 62 -30 6 3 12 13 12 24 0 16 7 19
40 19 37 0 40 -2 40 -27 0 -30 37 -113 50 -113 19 0 19 21 0 52 -28 46 -27 94
3 102 44 12 60 5 111 -49 48 -51 76 -68 76 -45 0 5 -20 30 -45 56 -25 25 -45
49 -45 53 0 4 21 12 48 17 42 8 55 6 127 -23 89 -36 175 -45 175 -18 0 11 -12
15 -45 15 -40 0 -155 37 -155 50 0 3 54 22 120 44 l120 38 35 -31 c20 -17 39
-31 43 -31 14 0 32 23 32 41 0 15 26 29 58 29 6 0 12 -10 12 -22 1 -21 2 -21
11 -5 7 11 22 17 49 17 42 0 80 26 80 55 0 9 -16 25 -35 36 -19 12 -35 23 -35
25 0 17 52 103 65 108 30 11 99 6 141 -10 38 -15 47 -15 96 0 84 24 240 138
224 164 -5 8 -29 -5 -74 -42 -121 -97 -170 -113 -256 -87 -34 10 -76 16 -94
14 l-33 -5 37 68 c258 475 570 755 955 858 52 13 130 30 174 37 101 16 389 16
520 0 275 -33 656 -131 1033 -265 117 -42 215 -76 218 -76 2 0 -7 23 -21 51
-43 83 -141 331 -174 436 -45 143 -83 294 -77 300 9 9 255 83 411 123 190 48
365 84 525 107 157 22 594 25 710 5 103 -18 253 -53 263 -62 5 -4 -72 -202
-169 -441 -220 -538 -216 -526 -203 -572 14 -53 60 -87 116 -87 81 0 86 10
297 530 104 256 192 469 196 473 21 24 303 -155 450 -286 112 -100 174 -170
295 -332 106 -142 275 -319 400 -420 546 -439 1147 -531 1639 -250 44 25 92
45 107 45 52 0 77 73 43 126 -20 30 -37 26 -118 -29 -90 -61 -254 -135 -363
-164 -86 -23 -119 -26 -263 -27 -186 -1 -264 12 -435 71 -347 121 -676 377
-945 739 -196 262 -414 452 -681 594 l-86 45 79 200 c43 110 127 324 185 475
58 151 107 278 109 282 6 10 211 -88 337 -161 97 -56 224 -142 305 -208 23
-18 36 -23 43 -16 12 12 -76 87 -201 170 -85 57 -278 163 -390 213 -41 19 -76
35 -78 36 -2 1 34 105 81 231 46 125 115 316 152 423 38 107 70 197 71 199 2
2 32 -4 66 -14 75 -20 592 -183 695 -219 60 -20 72 -22 77 -10 3 9 -3 18 -17
23 -34 13 -685 218 -749 236 -32 9 -58 20 -58 24 0 3 25 81 55 171 80 238 216
671 265 846 l43 151 135 7 c74 3 170 6 214 6 66 0 78 3 78 17 0 15 -18 15
-209 9 l-209 -7 14 48 c30 95 184 712 225 899 l42 191 126 6 c506 22 781 267
931 830 34 127 60 259 60 300 0 105 -127 154 -203 79 -25 -26 -33 -47 -53
-151 -34 -169 -87 -340 -139 -443 -99 -199 -217 -298 -415 -346 -94 -24 -260
-40 -260 -26 0 5 5 27 10 49 71 310 180 1161 209 1640 20 316 21 340 23 465 1
106 -1 130 -17 153 -37 57 -105 72 -163 37 -51 -31 -59 -64 -66 -270 -22 -618
-109 -1389 -223 -1967 -19 -98 -15 -96 -135 -52 -308 113 -462 273 -532 550
-35 138 -46 270 -46 549 l0 249 -34 35 c-28 30 -40 36 -75 36 -55 0 -95 -22
-113 -62 -31 -66 -28 -549 3 -737 29 -172 95 -348 177 -467 53 -79 170 -190
260 -248 93 -61 178 -100 316 -147 100 -34 111 -40 108 -60 -10 -87 -185 -802
-254 -1039 l-33 -115 -65 -8 c-133 -16 -973 -98 -975 -95 -2 2 6 50 16 108 57
309 80 589 79 975 0 442 -29 756 -103 1100 -37 176 -38 217 -12 430 17 135 20
221 20 550 0 380 -6 491 -41 805 -48 433 -139 876 -250 1221 -42 133 -136 379
-145 379 -3 0 -16 -30 -29 -67 -34 -98 -110 -268 -163 -365 -60 -110 -136
-225 -325 -492 -162 -229 -246 -356 -339 -509 -30 -51 -56 -93 -58 -95 -1 -2
-58 35 -126 81 -477 324 -1011 556 -1638 712 -75 19 -163 43 -196 55 -346 120
-779 151 -1123 80 -78 -16 -251 -66 -299 -86 -7 -3 -39 35 -74 88 -92 137
-172 245 -387 521 -106 137 -224 296 -263 355 -73 112 -190 333 -230 440 -13
34 -27 62 -32 62 -4 0 -19 -26 -33 -57z m6776 -6231 c0 -12 -91 -325 -135
-462 -74 -233 -198 -605 -204 -612 -3 -3 -94 16 -201 44 -207 52 -593 132
-697 144 -35 3 -63 10 -63 14 0 4 20 49 44 101 78 169 153 389 201 589 10 41
20 78 24 82 3 3 211 27 461 52 250 25 471 47 490 49 67 7 80 7 80 -1z m-1115
-938 c240 -41 737 -155 758 -174 14 -12 -282 -826 -299 -823 -13 2 -515 192
-739 280 -104 41 -290 124 -412 184 -197 98 -248 129 -213 129 18 0 313 140
465 221 117 61 155 87 170 112 59 101 64 107 92 102 16 -3 96 -16 178 -31z
m-670 -579 c173 -85 397 -176 860 -350 143 -54 262 -100 264 -102 2 -1 -8 -33
-22 -70 -14 -38 -58 -151 -97 -253 -66 -172 -251 -642 -254 -647 -1 -1 -44 9
-96 22 -471 118 -1015 73 -1746 -146 -71 -21 -135 -39 -140 -39 -6 0 -18 35
-28 78 -90 382 -196 584 -439 831 -94 95 -243 228 -330 293 -26 20 -44 38 -40
41 4 2 35 8 68 12 184 21 580 107 865 186 250 69 631 200 790 272 l55 24 60
-34 c33 -19 137 -72 230 -118z m-4045 -3195 c0 -58 -10 -67 -114 -115 -97 -44
-316 -117 -332 -111 -6 2 -15 1 -20 -4 -18 -16 -87 -30 -100 -19 -9 7 -15 6
-21 -5 -10 -18 -83 -33 -83 -17 0 6 -7 11 -15 11 -8 0 -15 -7 -15 -15 0 -10
-10 -15 -30 -15 -30 0 -30 0 -16 27 8 16 41 58 75 95 49 53 65 65 83 60 17 -4
20 -2 15 11 -4 11 10 30 46 62 53 46 67 53 67 34 0 -6 8 -8 19 -4 13 4 23 0
29 -11 11 -20 36 -9 28 12 -4 10 3 14 25 14 36 0 35 23 -1 28 -13 2 -29 10
-36 17 -10 10 -8 17 15 39 23 22 30 40 35 86 4 33 11 62 16 65 5 3 22 -14 39
-39 32 -46 47 -56 86 -56 21 0 27 9 45 66 11 36 23 71 27 77 3 6 35 -47 70
-117 50 -103 63 -138 63 -176z m-420 50 c0 -5 -10 -15 -22 -21 -23 -12 -23
-12 -4 10 21 23 26 26 26 11z m440 -139 c0 -5 3 -16 6 -25 5 -12 -5 -17 -45
-22 -45 -6 -51 -9 -51 -30 0 -29 -11 -30 -34 -5 -17 19 -16 20 26 39 24 11 52
27 63 36 23 18 35 20 35 7z m115 -23 c13 -12 -12 -28 -47 -28 -26 0 -27 2 -16
25 9 19 16 24 32 19 12 -3 25 -10 31 -16z"/>
<path d="M4627 494 c-3 -3 -3 -12 0 -20 3 -8 -5 -15 -24 -20 -56 -12 -63 -16
-63 -31 0 -11 6 -14 26 -9 68 17 86 18 94 6 10 -16 33 -3 27 15 -4 8 9 17 34
24 38 11 49 24 30 35 -5 3 -27 -1 -49 -8 -35 -13 -41 -13 -46 0 -6 15 -18 18
-29 8z"/>
<path d="M520 1392 c0 -13 39 -162 45 -171 5 -9 -27 -21 -57 -21 -24 0 -25 71
-2 106 12 17 14 28 7 35 -19 19 -53 -44 -53 -98 0 -43 -3 -51 -25 -61 -15 -7
-27 -8 -30 -2 -10 16 -53 11 -64 -7 -12 -23 14 -77 35 -69 8 3 20 8 27 11 6 2
23 -4 36 -14 l24 -18 -23 -33 c-29 -41 -40 -120 -16 -120 11 0 16 9 16 26 0
31 28 94 45 101 7 2 27 -5 45 -16 32 -19 33 -22 34 -90 1 -69 14 -100 35 -87
8 5 8 13 1 26 -10 19 -14 110 -5 110 2 0 24 -10 48 -21 38 -19 49 -31 76 -91
38 -81 105 -158 123 -140 9 9 3 20 -25 47 -21 20 -48 58 -62 85 -28 56 -30 64
-13 54 7 -4 60 -27 118 -50 l105 -42 6 -43 c7 -54 33 -75 66 -54 21 14 25 14
47 0 14 -9 32 -27 40 -40 25 -38 73 -59 104 -46 21 10 24 17 19 44 -3 18 -8
40 -12 49 -8 21 43 50 90 51 42 1 98 -41 121 -89 35 -74 103 -103 257 -111 95
-5 107 -4 107 11 0 13 -12 16 -78 16 -84 0 -177 20 -218 46 -14 10 -33 33 -44
53 -49 96 -141 129 -229 82 -38 -21 -48 1 -19 41 31 42 41 69 73 197 42 166
28 189 -75 126 -33 -20 -65 -33 -71 -29 -8 4 -10 28 -6 70 3 47 1 67 -9 75
-21 17 -65 2 -104 -36 l-35 -34 -150 -2 -150 -1 -10 86 c-5 48 -13 87 -17 86
-5 0 -12 0 -16 0 -5 0 -5 -24 -1 -52 4 -29 8 -70 8 -91 1 -37 0 -38 -31 -35
-35 3 -30 -8 -68 141 -7 27 -18 47 -26 47 -8 0 -14 -4 -14 -8z m591 -189 c-2
-52 1 -65 19 -83 l21 -21 35 20 c19 12 50 30 69 42 28 17 35 18 35 6 0 -37
-64 -256 -83 -284 -36 -53 -56 -58 -134 -39 -121 30 -339 116 -359 142 -6 8
-18 14 -27 14 -30 0 -88 33 -82 48 3 9 -2 13 -18 10 -28 -3 -77 26 -77 47 0
18 -20 31 -29 17 -4 -7 -13 -5 -26 4 -13 10 -16 17 -9 24 23 23 224 41 224 20
0 -15 27 -12 33 3 4 10 28 15 77 16 64 2 72 0 66 -14 -4 -12 0 -19 15 -22 12
-4 18 -11 15 -20 -9 -22 3 -36 19 -23 10 9 20 7 38 -5 31 -20 44 -4 17 20 -11
10 -20 29 -20 42 0 20 5 23 41 23 34 0 47 6 81 41 22 22 45 38 51 36 6 -2 10
-27 8 -64z m-201 -23 c0 -13 -20 -13 -40 0 -12 8 -9 10 13 10 15 0 27 -4 27
-10z m-520 -24 c0 -3 -4 -8 -10 -11 -5 -3 -10 -1 -10 4 0 6 5 11 10 11 6 0 10
-2 10 -4z m670 -341 c30 -8 70 -15 88 -15 29 0 35 -5 52 -46 20 -45 25 -74 15
-74 -17 0 -64 32 -78 53 -9 14 -32 35 -52 47 -33 21 -37 21 -54 6 -10 -9 -21
-13 -24 -9 -6 6 -10 53 -4 53 1 0 27 -7 57 -15z"/>
<path d="M916 1053 c-13 -14 -4 -24 39 -45 29 -14 45 -29 45 -40 0 -19 26 -25
32 -7 3 8 16 6 42 -5 47 -20 46 -20 46 0 0 9 -17 22 -39 31 -30 12 -41 22 -43
41 -3 24 -4 25 -20 9 -16 -17 -19 -17 -56 2 -22 11 -42 17 -46 14z"/>
</g>
</svg>
