<?xml version="1.0"?>
<svg xmlns="http://www.w3.org/2000/svg" xmlns:xlink="http://www.w3.org/1999/xlink" xmlns:svgjs="http://svgjs.com/svgjs" version="1.1" width="512" height="512" x="0" y="0" viewBox="0 0 24 24" style="enable-background:new 0 0 512 512" xml:space="preserve"><g><path xmlns="http://www.w3.org/2000/svg" d="M5.5,5.5H0v3H6A2.5,2.5,0,0,0,8.5,6V0h-3Z" fill="#ffffff" data-original="#000000"/><path xmlns="http://www.w3.org/2000/svg" d="M15.5,18v6h3V18.5H24v-3H18A2.5,2.5,0,0,0,15.5,18Z" fill="#ffffff" data-original="#000000"/><path xmlns="http://www.w3.org/2000/svg" d="M18.5,5.5V0h-3V6A2.5,2.5,0,0,0,18,8.5h6v-3Z" fill="#ffffff" data-original="#000000"/><path xmlns="http://www.w3.org/2000/svg" d="M6,15.5H0v3H5.5V24h3V18A2.5,2.5,0,0,0,6,15.5Z" fill="#ffffff" data-original="#000000"/></g></svg>
