<?xml version="1.0"?>
<svg xmlns="http://www.w3.org/2000/svg" xmlns:xlink="http://www.w3.org/1999/xlink" xmlns:svgjs="http://svgjs.com/svgjs" version="1.1" width="512" height="512" x="0" y="0" viewBox="0 0 24 24" style="enable-background:new 0 0 512 512" xml:space="preserve"><g><path xmlns="http://www.w3.org/2000/svg" d="M21,21H16v3h5.546A2.457,2.457,0,0,0,24,21.545V16H21Z" fill="#ffffff" data-original="#000000"/><path xmlns="http://www.w3.org/2000/svg" d="M0,2.455V8H3V3H8V0H2.454A2.457,2.457,0,0,0,0,2.455Z" fill="#ffffff" data-original="#000000"/><path xmlns="http://www.w3.org/2000/svg" d="M3,16H0v5.545A2.457,2.457,0,0,0,2.454,24H8V21H3Z" fill="#ffffff" data-original="#000000"/><path xmlns="http://www.w3.org/2000/svg" d="M21.546,0H16V3h5V8h3V2.455A2.457,2.457,0,0,0,21.546,0Z" fill="#ffffff" data-original="#000000"/></g></svg>
