<?xml version="1.0"?>
<svg xmlns="http://www.w3.org/2000/svg" xmlns:xlink="http://www.w3.org/1999/xlink" xmlns:svgjs="http://svgjs.com/svgjs" version="1.1" width="512" height="512" x="0" y="0" viewBox="0 0 24 24" style="enable-background:new 0 0 512 512" xml:space="preserve"><g><path xmlns="http://www.w3.org/2000/svg" d="M21,24H16V22h5a1,1,0,0,0,1-1V16h2v5A3,3,0,0,1,21,24Z"/><path xmlns="http://www.w3.org/2000/svg" d="M2,8H0V3A3,3,0,0,1,3,0H8V2H3A1,1,0,0,0,2,3Z"/><path xmlns="http://www.w3.org/2000/svg" d="M8,24H3a3,3,0,0,1-3-3V16H2v5a1,1,0,0,0,1,1H8Z"/><path xmlns="http://www.w3.org/2000/svg" d="M24,8H22V3a1,1,0,0,0-1-1H16V0h5a3,3,0,0,1,3,3Z"/></g></svg>
